<svg width="400" height="33" viewBox="0 0 400 33" fill="none" xmlns="http://www.w3.org/2000/svg">
<path d="M9.14779 0.789795C10.9654 0.789795 15.301 0.968579 18.2658 3.82913C19.9493 5.43819 21.2306 8.09015 21.2306 11.6211C21.2306 17.2082 18.8319 19.9495 17.7294 21.0222C15.0477 23.6742 11.4422 24.6277 6.43623 24.6277H0L2.93504 0.789795H9.16269H9.14779ZM5.14005 20.6348H6.71931C9.86293 20.6348 12.4702 20.024 14.258 18.0574C15.7628 16.4185 16.4333 13.9453 16.4333 11.7254C16.4333 10.3994 16.1502 8.25404 14.3623 6.64498C12.4255 4.93163 9.74374 4.78264 8.49225 4.78264H7.06198L5.12515 20.62L5.14005 20.6348Z" fill="#B71B26"/>
<path d="M38.7962 20.4856C38.0066 22.0946 36.7551 23.3759 35.5036 24.0911C33.9691 24.9552 32.2557 25.134 30.8552 25.134C28.7843 25.134 26.7432 24.7466 25.1043 22.9886C24.2402 22.0946 23.242 20.5154 23.242 17.9826C23.242 15.3008 24.2104 12.6191 25.9238 10.9355C27.8904 8.96888 30.2146 8.64111 32.1067 8.64111C33.9989 8.64111 35.891 8.99868 37.3958 10.429C39.0793 12.038 39.3922 14.1536 39.3922 16.0458C39.3922 16.6864 39.3922 17.1483 39.3177 17.625H27.7265C27.5477 19.0553 27.9798 20.0982 28.6204 20.7388C29.4101 21.5583 30.3785 21.7073 31.1532 21.7073C31.6896 21.7073 32.6878 21.6775 33.5072 21.2007C34.1478 20.8133 34.6842 20.1578 35.012 19.5916L38.7664 20.4856H38.7962ZM35.5781 14.839C35.5483 13.945 35.1461 13.0809 34.6097 12.5893C33.9989 12.0231 33.0751 11.7251 32.1812 11.7251C31.0042 11.7251 30.1401 12.187 29.5293 12.7234C28.9929 13.2299 28.4863 13.9748 28.248 14.839H35.5781Z" fill="#B71B26"/>
<path d="M50.0298 12.917C49.7021 12.5892 49.3892 12.3509 48.9273 12.1274C48.4655 11.9188 48.0632 11.8145 47.4673 11.8145C47.2885 11.8145 46.4243 11.8443 46.0072 12.3211C45.8582 12.4999 45.6794 12.7829 45.6794 13.2448C45.6794 13.5726 45.7539 13.8109 46.0072 14.0344C46.2605 14.243 46.5733 14.392 47.2587 14.6006L48.5847 15.0326C49.4488 15.3157 50.4023 15.8521 50.9833 16.4331C51.8773 17.3568 52.056 18.5487 52.056 19.3682C52.056 21.156 51.3409 22.4373 50.447 23.3312C48.8379 24.9403 46.7968 25.1488 45.3665 25.1488C43.7873 25.1488 42.6103 24.8211 41.7164 24.4039C40.9267 24.0165 40.003 23.2567 39.3624 22.5863L41.9696 19.9343C42.3272 20.4409 42.8338 20.9027 43.3999 21.2305C43.9363 21.5136 44.5769 21.737 45.1878 21.737C45.7539 21.737 46.469 21.5881 46.8713 21.2752C47.2289 20.9921 47.4822 20.4856 47.4822 19.9194C47.4822 19.6363 47.4077 19.2788 47.0948 18.951C46.767 18.6679 46.2307 18.4444 45.5602 18.2061L44.4875 17.774C43.8469 17.5207 43.087 17.1631 42.4464 16.5225C41.7313 15.8074 41.4035 15.0624 41.4035 13.8705C41.4035 12.336 42.0441 11.0398 42.9381 10.1906C43.832 9.32644 45.2622 8.68579 47.3332 8.68579C48.3314 8.68579 49.4786 8.83478 50.3725 9.19235C51.0578 9.44562 51.8028 9.90748 52.3093 10.2651L50.0596 12.9468L50.0298 12.917Z" fill="#B71B26"/>
<path d="M61.7103 9.1478L59.8182 24.6275H55.4529L57.345 9.1478H61.7103ZM58.5667 0.893921C59.2818 0.148987 60.0715 0 60.6376 0C61.323 0 61.8891 0.253278 62.2765 0.640644C62.7085 1.07271 62.9618 1.68355 62.9618 2.3242C62.9618 2.86055 62.783 3.65018 62.0977 4.32062C61.4571 4.96126 60.6972 5.21454 60.0268 5.21454C59.3563 5.21454 58.8051 4.96126 58.3879 4.5739C57.9559 4.14184 57.7026 3.65018 57.7026 2.93504C57.7026 2.2199 57.9559 1.50477 58.5667 0.893921Z" fill="#B71B26"/>
<path d="M77.8754 9.14767H82.2407L80.4231 23.9123C80.2145 25.7299 79.9166 28.7097 78.0691 30.6018C76.9219 31.7788 74.8212 32.8515 71.4243 32.8515C69.562 32.8515 67.2825 32.5237 65.6287 30.7806C64.6305 29.7377 63.9154 28.1286 63.7366 26.4599H68.3105C68.385 27.1006 68.6978 27.8902 69.2044 28.3521C69.5918 28.7394 70.3516 29.1417 71.5584 29.1417C72.9142 29.1417 73.9124 28.7097 74.5679 28.0988C75.5363 27.1751 75.8194 25.7746 75.9684 24.7317L76.2515 22.5565C76.0727 22.8098 75.3874 23.7335 74.3146 24.3741C73.4207 24.9105 72.4523 25.1191 71.4243 25.1191C69.5322 25.1191 67.7741 24.6572 66.3438 23.2269C65.1966 22.0797 64.3027 20.2621 64.3027 17.6846C64.3027 14.7496 65.4499 12.3211 67.0888 10.7865C68.1615 9.74362 69.9493 8.64111 72.6013 8.64111C74.0018 8.64111 75.0745 8.92419 75.8492 9.38605C76.3856 9.71382 77.1007 10.2502 77.6371 11.1441L77.8903 9.14767H77.8754ZM70.292 13.6173C69.2491 14.541 68.7872 16.016 68.7872 17.3419C68.7872 18.7722 69.4279 19.6959 69.9344 20.2025C70.7539 21.0219 71.7521 21.2752 72.646 21.2752C74.404 21.2752 75.432 20.6346 75.9684 20.128C76.8921 19.2341 77.4732 17.774 77.4732 16.3735C77.4732 14.9731 76.8325 14.0195 76.2962 13.513C75.6555 12.9468 74.6573 12.5148 73.4058 12.5148C71.8713 12.5148 70.873 13.0809 70.292 13.6173Z" fill="#B71B26"/>
<path d="M86.025 9.14767H90.3903L90.1371 11.1441C90.5691 10.4588 91.18 9.86281 92.0292 9.35625C92.9231 8.84969 93.817 8.64111 95.0387 8.64111C97.1096 8.64111 98.4058 9.28176 99.1806 10.0714C100.179 11.1143 100.402 12.3956 100.402 13.4683C100.402 14.3324 100.253 15.0475 100.119 16.1203L99.0763 24.6274H94.7109L95.6049 17.4462C95.6347 17.1185 95.8134 15.5541 95.8134 14.9731C95.8134 13.9004 95.4261 13.2895 95.0983 13.0064C94.7705 12.6787 94.1746 12.3658 93.2062 12.3658C91.9547 12.3658 91.2098 12.8723 90.7777 13.2895C89.9583 14.1536 89.6007 15.6137 89.4517 16.7162L88.4833 24.6125H84.118L86.0101 9.13277L86.025 9.14767Z" fill="#B71B26"/>
<path d="M119.428 10.0121H129.514L130.661 0.789795H135.31L132.375 24.6426H127.726L129.008 14.0198H118.921L117.64 24.6426H112.992L115.927 0.789795H120.575L119.428 10.0121Z" fill="#B71B26"/>
<path d="M152.861 10.8759C153.859 11.9188 154.857 13.5875 154.857 16.0309C154.857 17.9975 154.246 20.4707 152.101 22.5416C150.06 24.4784 147.735 25.1488 144.979 25.1488C142.759 25.1488 140.688 24.687 139.005 23.0034C137.858 21.9009 136.964 20.1727 136.964 17.7442C136.964 15.3157 138.066 12.8127 139.645 11.2782C140.897 10.0565 143.117 8.6709 146.722 8.6709C149.762 8.6709 151.654 9.71381 152.831 10.8908L152.861 10.8759ZM148.823 19.9194C149.717 19.0255 150.283 17.6697 150.283 16.448C150.283 15.4796 149.896 14.3026 149.136 13.5875C148.421 12.9021 147.348 12.5148 146.305 12.5148C145.083 12.5148 143.877 12.9766 143.013 13.7662C141.94 14.7645 141.478 16.2394 141.478 17.4462C141.478 18.3699 141.865 19.4873 142.551 20.1578C143.266 20.8729 144.413 21.2603 145.411 21.2603C146.588 21.2603 147.884 20.8282 148.808 19.9045L148.823 19.9194Z" fill="#B71B26"/>
<path d="M162.47 9.14771L161.546 16.8801C161.397 18.1316 161.368 18.519 161.368 18.7425C161.368 19.7407 161.695 20.3217 162.008 20.6346C162.47 21.1412 163.29 21.4242 164.184 21.4242C165.286 21.4242 166.076 21.0369 166.582 20.5601C167.402 19.7705 167.58 18.6978 167.759 17.3122L168.757 9.1626H173.123L172.08 17.7145C171.722 20.575 171.037 22.7949 168.713 24.1209C167.312 24.9105 165.569 25.1638 164.094 25.1638C162.157 25.1638 160.235 24.7317 158.984 23.8378C158.164 23.227 156.913 21.9457 156.913 19.5768C156.913 18.9659 156.987 18.2508 157.122 17.1483L158.09 9.1775H162.455L162.47 9.14771Z" fill="#B71B26"/>
<path d="M184.252 12.917C183.924 12.5892 183.611 12.3509 183.15 12.1274C182.688 11.9188 182.285 11.8145 181.689 11.8145C181.511 11.8145 180.647 11.8443 180.229 12.3211C180.08 12.4999 179.902 12.7829 179.902 13.2448C179.902 13.5726 179.976 13.8109 180.229 14.0344C180.483 14.243 180.796 14.392 181.481 14.6006L182.807 15.0326C183.671 15.3157 184.625 15.8521 185.206 16.4331C186.099 17.3568 186.278 18.5487 186.278 19.3682C186.278 21.156 185.563 22.4373 184.669 23.3312C183.06 24.9403 181.019 25.1488 179.589 25.1488C178.01 25.1488 176.833 24.8211 175.939 24.4039C175.149 24.0165 174.225 23.2567 173.585 22.5863L176.192 19.9343C176.549 20.4409 177.056 20.9027 177.622 21.2305C178.158 21.5136 178.799 21.737 179.41 21.737C179.976 21.737 180.691 21.5881 181.094 21.2752C181.451 20.9921 181.704 20.4856 181.704 19.9194C181.704 19.6363 181.63 19.2788 181.317 18.951C180.989 18.6679 180.453 18.4444 179.782 18.2061L178.71 17.774C178.069 17.5207 177.309 17.1631 176.669 16.5225C175.953 15.8074 175.626 15.0624 175.626 13.8705C175.626 12.336 176.266 11.0398 177.16 10.1906C178.054 9.32644 179.484 8.68579 181.555 8.68579C182.554 8.68579 183.701 8.83478 184.595 9.19235C185.28 9.44562 186.025 9.90748 186.532 10.2651L184.282 12.9468L184.252 12.917Z" fill="#B71B26"/>
<path d="M203.993 20.4856C203.203 22.0946 201.952 23.3759 200.7 24.0911C199.166 24.9552 197.452 25.134 196.052 25.134C193.981 25.134 191.94 24.7466 190.301 22.9886C189.437 22.0946 188.439 20.5154 188.439 17.9826C188.439 15.3008 189.407 12.6191 191.12 10.9355C193.087 8.96888 195.411 8.64111 197.303 8.64111C199.195 8.64111 201.088 8.99868 202.592 10.429C204.276 12.038 204.589 14.1536 204.589 16.0458C204.589 16.6864 204.589 17.1483 204.514 17.625H192.923C192.744 19.0553 193.176 20.0982 193.817 20.7388C194.607 21.5583 195.575 21.7073 196.35 21.7073C196.886 21.7073 197.884 21.6775 198.704 21.2007C199.344 20.8133 199.881 20.1578 200.209 19.5916L203.963 20.4856H203.993ZM200.775 14.839C200.745 13.945 200.343 13.0809 199.806 12.5893C199.195 12.0231 198.272 11.7251 197.378 11.7251C196.201 11.7251 195.337 12.187 194.726 12.7234C194.189 13.2299 193.683 13.9748 193.445 14.839H200.775Z" fill="#B71B26"/>
<path d="M226.579 0.789795C228.397 0.789795 230.766 1.04307 232.509 2.86071C233.328 3.72484 234.193 5.15511 234.193 7.43461C234.193 9.71411 233.373 11.4722 232.226 12.5896C231.153 13.6325 229.395 14.4072 227.831 14.6605L233.909 24.6426H228.337L223.153 15.0627H222.586L221.409 24.6426H216.761L219.696 0.789795H226.594H226.579ZM222.974 11.7701H224.613C225.864 11.7701 227.443 11.4126 228.337 10.5186C228.769 10.0866 229.38 9.23735 229.38 7.80708C229.38 7.12174 229.231 6.19802 228.412 5.48288C227.846 4.97633 226.877 4.58896 225.343 4.58896H223.883L222.989 11.785L222.974 11.7701Z" fill="#B71B26"/>
<path d="M251.371 20.4856C250.581 22.0946 249.33 23.3759 248.078 24.0911C246.543 24.9552 244.83 25.134 243.43 25.134C241.359 25.134 239.318 24.7466 237.679 22.9886C236.815 22.0946 235.816 20.5154 235.816 17.9826C235.816 15.3008 236.785 12.6191 238.498 10.9355C240.465 8.96888 242.789 8.64111 244.681 8.64111C246.573 8.64111 248.465 8.99868 249.97 10.429C251.654 12.038 251.967 14.1536 251.967 16.0458C251.967 16.6864 251.967 17.1483 251.892 17.625H240.301C240.122 19.0553 240.554 20.0982 241.195 20.7388C241.984 21.5583 242.953 21.7073 243.728 21.7073C244.264 21.7073 245.262 21.6775 246.082 21.2007C246.722 20.8133 247.259 20.1578 247.586 19.5916L251.341 20.4856H251.371ZM248.153 14.839C248.123 13.945 247.72 13.0809 247.184 12.5893C246.573 12.0231 245.65 11.7251 244.756 11.7251C243.579 11.7251 242.715 12.187 242.104 12.7234C241.567 13.2299 241.061 13.9748 240.822 14.839H248.153Z" fill="#B71B26"/>
<path d="M255.259 9.14767H259.625L259.371 11.1441C259.803 10.4588 260.414 9.86281 261.263 9.35625C262.157 8.84969 263.051 8.64111 264.273 8.64111C266.344 8.64111 267.64 9.28176 268.415 10.0714C269.413 11.1143 269.636 12.3956 269.636 13.4683C269.636 14.3324 269.487 15.0475 269.353 16.1203L268.31 24.6274H263.945L264.839 17.4462C264.869 17.1185 265.048 15.5541 265.048 14.9731C265.048 13.9004 264.66 13.2895 264.332 13.0064C264.005 12.6787 263.409 12.3658 262.44 12.3658C261.189 12.3658 260.444 12.8723 260.012 13.2895C259.192 14.1536 258.835 15.6137 258.686 16.7162L257.717 24.6125H253.352L255.244 9.13277L255.259 9.14767Z" fill="#B71B26"/>
<path d="M287.515 10.8759C288.513 11.9188 289.511 13.5875 289.511 16.0309C289.511 17.9975 288.901 20.4707 286.755 22.5416C284.714 24.4784 282.39 25.1488 279.634 25.1488C277.414 25.1488 275.343 24.687 273.659 23.0034C272.512 21.9009 271.618 20.1727 271.618 17.7442C271.618 15.3157 272.721 12.8127 274.3 11.2782C275.551 10.0565 277.771 8.6709 281.377 8.6709C284.416 8.6709 286.308 9.71381 287.485 10.8908L287.515 10.8759ZM283.477 19.9194C284.371 19.0255 284.937 17.6697 284.937 16.448C284.937 15.4796 284.55 14.3026 283.79 13.5875C283.075 12.9021 282.002 12.5148 280.96 12.5148C279.738 12.5148 278.531 12.9766 277.667 13.7662C276.594 14.7645 276.132 16.2394 276.132 17.4462C276.132 18.3699 276.52 19.4873 277.205 20.1578C277.92 20.8729 279.067 21.2603 280.066 21.2603C281.243 21.2603 282.539 20.8282 283.462 19.9045L283.477 19.9194Z" fill="#B71B26"/>
<path d="M294.696 9.14771L297.706 17.8783L302.861 9.14771H307.867L298.063 24.6274H295.992L289.988 9.14771H294.711H294.696Z" fill="#B71B26"/>
<path d="M320.873 9.14766H325.238L323.346 24.6274H318.981L319.234 22.631C318.445 23.6739 317.551 24.2102 317.268 24.389C316.344 24.9254 315.45 25.134 314.377 25.134C312.515 25.134 310.772 24.6274 309.297 23.1673C307.792 21.6626 307.226 19.7704 307.226 17.6995C307.226 14.9135 308.15 12.6191 309.625 11.0845C310.876 9.80321 312.872 8.65601 315.733 8.65601C316.836 8.65601 317.804 8.86459 318.802 9.40094C319.666 9.8628 320.203 10.4438 320.62 11.159L320.873 9.16256V9.14766ZM313.29 13.6173C312.291 14.541 311.755 15.9117 311.755 17.193C311.755 18.5487 312.262 19.6214 312.932 20.2621C313.573 20.8729 314.511 21.2603 315.793 21.2603C316.657 21.2603 317.834 21.0815 318.862 20.1578C319.905 19.2341 320.396 17.7591 320.396 16.4331C320.396 15.3306 319.964 14.3622 319.324 13.6769C318.817 13.1405 317.893 12.4999 316.314 12.4999C315.212 12.4999 314.169 12.8276 313.275 13.6024L313.29 13.6173Z" fill="#B71B26"/>
<path d="M335.787 12.8726L334.356 24.6426H329.991L331.421 12.8726H329.708L330.17 9.14792H331.883L332.524 3.85889H336.889L336.249 9.14792H339.258L338.796 12.8726H335.787Z" fill="#B71B26"/>
<path d="M346.976 9.1478L345.083 24.6275H340.718L342.61 9.1478H346.976ZM343.832 0.893921C344.547 0.148987 345.337 0 345.903 0C346.588 0 347.154 0.253278 347.542 0.640644C347.974 1.07271 348.227 1.68355 348.227 2.3242C348.227 2.86055 348.048 3.65018 347.363 4.32062C346.722 4.96126 345.962 5.21454 345.292 5.21454C344.622 5.21454 344.07 4.96126 343.653 4.5739C343.221 4.14184 342.968 3.65018 342.968 2.93504C342.968 2.2199 343.221 1.50477 343.832 0.893921Z" fill="#B71B26"/>
<path d="M364.929 10.8759C365.927 11.9188 366.925 13.5875 366.925 16.0309C366.925 17.9975 366.314 20.4707 364.169 22.5416C362.128 24.4784 359.803 25.1488 357.047 25.1488C354.827 25.1488 352.756 24.687 351.073 23.0034C349.926 21.9009 349.032 20.1727 349.032 17.7442C349.032 15.3157 350.134 12.8127 351.713 11.2782C352.965 10.0565 355.185 8.6709 358.79 8.6709C361.83 8.6709 363.722 9.71381 364.899 10.8908L364.929 10.8759ZM360.891 19.9194C361.785 19.0255 362.351 17.6697 362.351 16.448C362.351 15.4796 361.964 14.3026 361.204 13.5875C360.489 12.9021 359.416 12.5148 358.373 12.5148C357.151 12.5148 355.945 12.9766 355.08 13.7662C354.008 14.7645 353.546 16.2394 353.546 17.4462C353.546 18.3699 353.933 19.4873 354.619 20.1578C355.334 20.8729 356.481 21.2603 357.479 21.2603C358.656 21.2603 359.952 20.8282 360.876 19.9045L360.891 19.9194Z" fill="#B71B26"/>
<path d="M370.858 9.14767H375.224L374.97 11.1441C375.402 10.4588 376.013 9.86281 376.862 9.35625C377.756 8.84969 378.65 8.64111 379.872 8.64111C381.943 8.64111 383.239 9.28176 384.014 10.0714C385.012 11.1143 385.235 12.3956 385.235 13.4683C385.235 14.3324 385.086 15.0475 384.952 16.1203L383.909 24.6274H379.544L380.438 17.4462C380.468 17.1185 380.647 15.5541 380.647 14.9731C380.647 13.9004 380.259 13.2895 379.931 13.0064C379.604 12.6787 379.008 12.3658 378.039 12.3658C376.788 12.3658 376.043 12.8723 375.611 13.2895C374.791 14.1536 374.434 15.6137 374.285 16.7162L373.316 24.6125H368.951L370.843 9.13277L370.858 9.14767Z" fill="#B71B26"/>
<path d="M397.721 12.917C397.393 12.5892 397.08 12.3509 396.618 12.1274C396.156 11.9188 395.754 11.8145 395.158 11.8145C394.979 11.8145 394.115 11.8443 393.698 12.3211C393.549 12.4999 393.37 12.7829 393.37 13.2448C393.37 13.5726 393.445 13.8109 393.698 14.0344C393.951 14.243 394.264 14.392 394.949 14.6006L396.275 15.0326C397.14 15.3157 398.093 15.8521 398.674 16.4331C399.568 17.3568 399.747 18.5487 399.747 19.3682C399.747 21.156 399.032 22.4373 398.138 23.3312C396.529 24.9403 394.488 25.1488 393.057 25.1488C391.478 25.1488 390.301 24.8211 389.407 24.4039C388.617 24.0165 387.694 23.2567 387.053 22.5863L389.66 19.9343C390.018 20.4409 390.524 20.9027 391.091 21.2305C391.627 21.5136 392.268 21.737 392.878 21.737C393.445 21.737 394.16 21.5881 394.562 21.2752C394.92 20.9921 395.173 20.4856 395.173 19.9194C395.173 19.6363 395.098 19.2788 394.786 18.951C394.458 18.6679 393.921 18.4444 393.251 18.2061L392.178 17.774C391.538 17.5207 390.778 17.1631 390.137 16.5225C389.422 15.8074 389.094 15.0624 389.094 13.8705C389.094 12.336 389.735 11.0398 390.629 10.1906C391.523 9.32644 392.953 8.68579 395.024 8.68579C396.022 8.68579 397.169 8.83478 398.063 9.19235C398.749 9.44562 399.494 9.90748 400 10.2651L397.75 12.9468L397.721 12.917Z" fill="#B71B26"/>
</svg>
